<svg width="383" height="104" viewBox="0 0 383 104" fill="none" xmlns="http://www.w3.org/2000/svg">
<path d="M27.06 3.78409V34.4961H20.9V21.4281H7.74397V34.4961H1.58397V3.78409H7.74397V16.4121H20.9V3.78409H27.06ZM55.783 21.7801C55.783 22.6601 55.7244 23.4521 55.607 24.1561H37.787C37.9337 25.9161 38.5497 27.2948 39.635 28.2921C40.7204 29.2894 42.055 29.7881 43.639 29.7881C45.927 29.7881 47.555 28.8054 48.523 26.8401H55.167C54.463 29.1868 53.1137 31.1228 51.119 32.6481C49.1244 34.1441 46.675 34.8921 43.771 34.8921C41.4244 34.8921 39.3124 34.3788 37.435 33.3521C35.587 32.2961 34.135 30.8148 33.079 28.9081C32.0524 27.0014 31.539 24.8014 31.539 22.3081C31.539 19.7854 32.0524 17.5708 33.079 15.6641C34.1057 13.7574 35.543 12.2908 37.391 11.2641C39.239 10.2374 41.3657 9.72409 43.771 9.72409C46.0884 9.72409 48.1564 10.2228 49.975 11.2201C51.823 12.2174 53.2457 13.6401 54.243 15.4881C55.2697 17.3068 55.783 19.4041 55.783 21.7801ZM49.403 20.0201C49.3737 18.4361 48.8017 17.1748 47.687 16.2361C46.5724 15.2681 45.2084 14.7841 43.595 14.7841C42.0697 14.7841 40.779 15.2534 39.723 16.1921C38.6964 17.1014 38.0657 18.3774 37.831 20.0201H49.403ZM66.4393 1.93609V34.4961H60.2793V1.93609H66.4393ZM78.6854 13.6401C79.4774 12.5254 80.5627 11.6014 81.9414 10.8681C83.3494 10.1054 84.948 9.72409 86.7374 9.72409C88.82 9.72409 90.6974 10.2374 92.3694 11.2641C94.0707 12.2908 95.4054 13.7574 96.3734 15.6641C97.3707 17.5414 97.8694 19.7268 97.8694 22.2201C97.8694 24.7134 97.3707 26.9281 96.3734 28.8641C95.4054 30.7708 94.0707 32.2521 92.3694 33.3081C90.6974 34.3641 88.82 34.8921 86.7374 34.8921C84.948 34.8921 83.364 34.5254 81.9854 33.7921C80.636 33.0588 79.536 32.1348 78.6854 31.0201V46.1121H72.5254V10.1201H78.6854V13.6401ZM91.5774 22.2201C91.5774 20.7534 91.2694 19.4921 90.6534 18.4361C90.0667 17.3508 89.2747 16.5294 88.2774 15.9721C87.3094 15.4148 86.2534 15.1361 85.1094 15.1361C83.9947 15.1361 82.9387 15.4294 81.9414 16.0161C80.9734 16.5734 80.1814 17.3948 79.5654 18.4801C78.9787 19.5654 78.6854 20.8414 78.6854 22.3081C78.6854 23.7748 78.9787 25.0508 79.5654 26.1361C80.1814 27.2214 80.9734 28.0574 81.9414 28.6441C82.9387 29.2014 83.9947 29.4801 85.1094 29.4801C86.2534 29.4801 87.3094 29.1868 88.2774 28.6001C89.2747 28.0134 90.0667 27.1774 90.6534 26.0921C91.2694 25.0068 91.5774 23.7161 91.5774 22.2201ZM115.954 7.21609C114.869 7.21609 113.959 6.87876 113.226 6.20409C112.522 5.50009 112.17 4.63476 112.17 3.60809C112.17 2.58143 112.522 1.73076 113.226 1.05609C113.959 0.352092 114.869 9.20296e-05 115.954 9.20296e-05C117.039 9.20296e-05 117.934 0.352092 118.638 1.05609C119.371 1.73076 119.738 2.58143 119.738 3.60809C119.738 4.63476 119.371 5.50009 118.638 6.20409C117.934 6.87876 117.039 7.21609 115.954 7.21609ZM118.99 10.1201V34.4961H112.83V10.1201H118.99ZM134.404 34.8921C132.409 34.8921 130.62 34.5401 129.036 33.8361C127.452 33.1028 126.191 32.1201 125.252 30.8881C124.343 29.6561 123.844 28.2921 123.756 26.7961H129.96C130.077 27.7348 130.532 28.5121 131.324 29.1281C132.145 29.7441 133.157 30.0521 134.36 30.0521C135.533 30.0521 136.443 29.8174 137.088 29.3481C137.763 28.8788 138.1 28.2774 138.1 27.5441C138.1 26.7521 137.689 26.1654 136.868 25.7841C136.076 25.3734 134.8 24.9334 133.04 24.4641C131.221 24.0241 129.725 23.5694 128.552 23.1001C127.408 22.6308 126.411 21.9121 125.56 20.9441C124.739 19.9761 124.328 18.6708 124.328 17.0281C124.328 15.6788 124.709 14.4468 125.472 13.3321C126.264 12.2174 127.379 11.3374 128.816 10.6921C130.283 10.0468 131.999 9.72409 133.964 9.72409C136.868 9.72409 139.185 10.4574 140.916 11.9241C142.647 13.3614 143.6 15.3121 143.776 17.7761H137.88C137.792 16.8081 137.381 16.0454 136.648 15.4881C135.944 14.9014 134.991 14.6081 133.788 14.6081C132.673 14.6081 131.808 14.8134 131.192 15.2241C130.605 15.6348 130.312 16.2068 130.312 16.9401C130.312 17.7614 130.723 18.3921 131.544 18.8321C132.365 19.2428 133.641 19.6681 135.372 20.1081C137.132 20.5481 138.584 21.0028 139.728 21.4721C140.872 21.9414 141.855 22.6748 142.676 23.6721C143.527 24.6401 143.967 25.9308 143.996 27.5441C143.996 28.9521 143.6 30.2134 142.808 31.3281C142.045 32.4428 140.931 33.3228 139.464 33.9681C138.027 34.5841 136.34 34.8921 134.404 34.8921ZM170.361 34.8921C168.014 34.8921 165.902 34.3788 164.025 33.3521C162.148 32.2961 160.666 30.8148 159.581 28.9081C158.525 27.0014 157.997 24.8014 157.997 22.3081C157.997 19.8148 158.54 17.6148 159.625 15.7081C160.74 13.8014 162.25 12.3348 164.157 11.3081C166.064 10.2521 168.19 9.72409 170.537 9.72409C172.884 9.72409 175.01 10.2521 176.917 11.3081C178.824 12.3348 180.32 13.8014 181.405 15.7081C182.52 17.6148 183.077 19.8148 183.077 22.3081C183.077 24.8014 182.505 27.0014 181.361 28.9081C180.246 30.8148 178.721 32.2961 176.785 33.3521C174.878 34.3788 172.737 34.8921 170.361 34.8921ZM170.361 29.5241C171.476 29.5241 172.517 29.2601 173.485 28.7321C174.482 28.1748 175.274 27.3534 175.861 26.2681C176.448 25.1828 176.741 23.8628 176.741 22.3081C176.741 19.9908 176.125 18.2161 174.893 16.9841C173.69 15.7228 172.209 15.0921 170.449 15.0921C168.689 15.0921 167.208 15.7228 166.005 16.9841C164.832 18.2161 164.245 19.9908 164.245 22.3081C164.245 24.6254 164.817 26.4148 165.961 27.6761C167.134 28.9081 168.601 29.5241 170.361 29.5241ZM201.104 9.76809C204.008 9.76809 206.354 10.6921 208.144 12.5401C209.933 14.3588 210.828 16.9108 210.828 20.1961V34.4961H204.668V21.0321C204.668 19.0961 204.184 17.6148 203.216 16.5881C202.248 15.5321 200.928 15.0041 199.256 15.0041C197.554 15.0041 196.205 15.5321 195.208 16.5881C194.24 17.6148 193.756 19.0961 193.756 21.0321V34.4961H187.596V10.1201H193.756V13.1561C194.577 12.1001 195.618 11.2788 196.88 10.6921C198.17 10.0761 199.578 9.76809 201.104 9.76809ZM222.846 1.93609V34.4961H216.686V1.93609H222.846ZM252.252 10.1201L237.16 46.0241H230.604L235.884 33.8801L226.116 10.1201H233.024L239.316 27.1481L245.696 10.1201H252.252ZM264.473 22.2201C264.473 19.7561 264.957 17.5708 265.925 15.6641C266.922 13.7574 268.257 12.2908 269.929 11.2641C271.63 10.2374 273.522 9.72409 275.605 9.72409C277.423 9.72409 279.007 10.0908 280.357 10.8241C281.735 11.5574 282.835 12.4814 283.657 13.5961V10.1201H289.861V34.4961H283.657V30.9321C282.865 32.0761 281.765 33.0294 280.357 33.7921C278.978 34.5254 277.379 34.8921 275.561 34.8921C273.507 34.8921 271.63 34.3641 269.929 33.3081C268.257 32.2521 266.922 30.7708 265.925 28.8641C264.957 26.9281 264.473 24.7134 264.473 22.2201ZM283.657 22.3081C283.657 20.8121 283.363 19.5361 282.777 18.4801C282.19 17.3948 281.398 16.5734 280.401 16.0161C279.403 15.4294 278.333 15.1361 277.189 15.1361C276.045 15.1361 274.989 15.4148 274.021 15.9721C273.053 16.5294 272.261 17.3508 271.645 18.4361C271.058 19.4921 270.765 20.7534 270.765 22.2201C270.765 23.6868 271.058 24.9774 271.645 26.0921C272.261 27.1774 273.053 28.0134 274.021 28.6001C275.018 29.1868 276.074 29.4801 277.189 29.4801C278.333 29.4801 279.403 29.2014 280.401 28.6441C281.398 28.0574 282.19 27.2361 282.777 26.1801C283.363 25.0948 283.657 23.8041 283.657 22.3081ZM317.537 15.1801H313.269V34.4961H307.021V15.1801H304.249V10.1201H307.021V8.88809C307.021 5.89609 307.872 3.69609 309.573 2.28809C311.275 0.880092 313.841 0.220093 317.273 0.308093V5.50009C315.777 5.47076 314.736 5.72009 314.149 6.24809C313.563 6.77609 313.269 7.72943 313.269 9.10809V10.1201H317.537V15.1801ZM344.189 21.7801C344.189 22.6601 344.131 23.4521 344.013 24.1561H326.193C326.34 25.9161 326.956 27.2948 328.041 28.2921C329.127 29.2894 330.461 29.7881 332.045 29.7881C334.333 29.7881 335.961 28.8054 336.929 26.8401H343.573C342.869 29.1868 341.52 31.1228 339.525 32.6481C337.531 34.1441 335.081 34.8921 332.177 34.8921C329.831 34.8921 327.719 34.3788 325.841 33.3521C323.993 32.2961 322.541 30.8148 321.485 28.9081C320.459 27.0014 319.945 24.8014 319.945 22.3081C319.945 19.7854 320.459 17.5708 321.485 15.6641C322.512 13.7574 323.949 12.2908 325.797 11.2641C327.645 10.2374 329.772 9.72409 332.177 9.72409C334.495 9.72409 336.563 10.2228 338.381 11.2201C340.229 12.2174 341.652 13.6401 342.649 15.4881C343.676 17.3068 344.189 19.4041 344.189 21.7801ZM337.809 20.0201C337.78 18.4361 337.208 17.1748 336.093 16.2361C334.979 15.2681 333.615 14.7841 332.001 14.7841C330.476 14.7841 329.185 15.2534 328.129 16.1921C327.103 17.1014 326.472 18.3774 326.237 20.0201H337.809ZM382.478 10.1201L375.35 34.4961H368.706L364.262 17.4681L359.818 34.4961H353.13L345.958 10.1201H352.206L356.518 28.6881L361.182 10.1201H367.694L372.27 28.6441L376.582 10.1201H382.478ZM-2.63751e-05 79.3081C-2.63751e-05 76.7854 0.513307 74.5854 1.53997 72.7081C2.56664 70.8014 3.98931 69.3348 5.80797 68.3081C7.62664 67.2521 9.70931 66.7241 12.056 66.7241C15.0773 66.7241 17.5706 67.4868 19.536 69.0121C21.5306 70.5081 22.8653 72.6201 23.54 75.3481H16.896C16.544 74.2921 15.9426 73.4708 15.092 72.8841C14.2706 72.2681 13.244 71.9601 12.012 71.9601C10.252 71.9601 8.85864 72.6054 7.83197 73.8961C6.80531 75.1574 6.29197 76.9614 6.29197 79.3081C6.29197 81.6254 6.80531 83.4294 7.83197 84.7201C8.85864 85.9814 10.252 86.6121 12.012 86.6121C14.5053 86.6121 16.1333 85.4974 16.896 83.2681H23.54C22.8653 85.9081 21.5306 88.0054 19.536 89.5601C17.5413 91.1148 15.048 91.8921 12.056 91.8921C9.70931 91.8921 7.62664 91.3788 5.80797 90.3521C3.98931 89.2961 2.56664 87.8294 1.53997 85.9521C0.513307 84.0454 -2.63751e-05 81.8308 -2.63751e-05 79.3081ZM34.2127 58.9361V91.4961H28.0527V58.9361H34.2127ZM43.4228 64.2161C42.3375 64.2161 41.4282 63.8788 40.6948 63.2041C39.9908 62.5001 39.6388 61.6348 39.6388 60.6081C39.6388 59.5814 39.9908 58.7308 40.6948 58.0561C41.4282 57.3521 42.3375 57.0001 43.4228 57.0001C44.5082 57.0001 45.4028 57.3521 46.1068 58.0561C46.8402 58.7308 47.2068 59.5814 47.2068 60.6081C47.2068 61.6348 46.8402 62.5001 46.1068 63.2041C45.4028 63.8788 44.5082 64.2161 43.4228 64.2161ZM46.4588 67.1201V91.4961H40.2988V67.1201H46.4588ZM50.9609 79.3081C50.9609 76.7854 51.4742 74.5854 52.5009 72.7081C53.5276 70.8014 54.9502 69.3348 56.7689 68.3081C58.5876 67.2521 60.6702 66.7241 63.0169 66.7241C66.0382 66.7241 68.5316 67.4868 70.4969 69.0121C72.4916 70.5081 73.8262 72.6201 74.5009 75.3481H67.8569C67.5049 74.2921 66.9036 73.4708 66.0529 72.8841C65.2316 72.2681 64.2049 71.9601 62.9729 71.9601C61.2129 71.9601 59.8196 72.6054 58.7929 73.8961C57.7662 75.1574 57.2529 76.9614 57.2529 79.3081C57.2529 81.6254 57.7662 83.4294 58.7929 84.7201C59.8196 85.9814 61.2129 86.6121 62.9729 86.6121C65.4662 86.6121 67.0942 85.4974 67.8569 83.2681H74.5009C73.8262 85.9081 72.4916 88.0054 70.4969 89.5601C68.5022 91.1148 66.0089 91.8921 63.0169 91.8921C60.6702 91.8921 58.5876 91.3788 56.7689 90.3521C54.9502 89.2961 53.5276 87.8294 52.5009 85.9521C51.4742 84.0454 50.9609 81.8308 50.9609 79.3081ZM93.4457 91.4961L85.1737 81.1121V91.4961H79.0137V58.9361H85.1737V77.4601L93.3577 67.1201H101.366L90.6297 79.3521L101.454 91.4961H93.4457ZM114.037 91.8921C112.042 91.8921 110.253 91.5401 108.669 90.8361C107.085 90.1028 105.824 89.1201 104.885 87.8881C103.976 86.6561 103.477 85.2921 103.389 83.7961H109.593C109.71 84.7348 110.165 85.5121 110.957 86.1281C111.778 86.7441 112.79 87.0521 113.993 87.0521C115.166 87.0521 116.076 86.8174 116.721 86.3481C117.396 85.8788 117.733 85.2774 117.733 84.5441C117.733 83.7521 117.322 83.1654 116.501 82.7841C115.709 82.3734 114.433 81.9334 112.673 81.4641C110.854 81.0241 109.358 80.5694 108.185 80.1001C107.041 79.6308 106.044 78.9121 105.193 77.9441C104.372 76.9761 103.961 75.6708 103.961 74.0281C103.961 72.6788 104.342 71.4468 105.105 70.3321C105.897 69.2174 107.012 68.3374 108.449 67.6921C109.916 67.0468 111.632 66.7241 113.597 66.7241C116.501 66.7241 118.818 67.4574 120.549 68.9241C122.28 70.3614 123.233 72.3121 123.409 74.7761H117.513C117.425 73.8081 117.014 73.0454 116.281 72.4881C115.577 71.9014 114.624 71.6081 113.421 71.6081C112.306 71.6081 111.441 71.8134 110.825 72.2241C110.238 72.6348 109.945 73.2068 109.945 73.9401C109.945 74.7614 110.356 75.3921 111.177 75.8321C111.998 76.2428 113.274 76.6681 115.005 77.1081C116.765 77.5481 118.217 78.0028 119.361 78.4721C120.505 78.9414 121.488 79.6748 122.309 80.6721C123.16 81.6401 123.6 82.9308 123.629 84.5441C123.629 85.9521 123.233 87.2134 122.441 88.3281C121.678 89.4428 120.564 90.3228 119.097 90.9681C117.66 91.5841 115.973 91.8921 114.037 91.8921ZM137.586 79.2201C137.586 76.7561 138.07 74.5708 139.038 72.6641C140.035 70.7574 141.37 69.2908 143.042 68.2641C144.743 67.2374 146.635 66.7241 148.718 66.7241C150.537 66.7241 152.121 67.0908 153.47 67.8241C154.849 68.5574 155.949 69.4814 156.77 70.5961V67.1201H162.974V91.4961H156.77V87.9321C155.978 89.0761 154.878 90.0294 153.47 90.7921C152.091 91.5254 150.493 91.8921 148.674 91.8921C146.621 91.8921 144.743 91.3641 143.042 90.3081C141.37 89.2521 140.035 87.7708 139.038 85.8641C138.07 83.9281 137.586 81.7134 137.586 79.2201ZM156.77 79.3081C156.77 77.8121 156.477 76.5361 155.89 75.4801C155.303 74.3948 154.511 73.5734 153.514 73.0161C152.517 72.4294 151.446 72.1361 150.302 72.1361C149.158 72.1361 148.102 72.4148 147.134 72.9721C146.166 73.5294 145.374 74.3508 144.758 75.4361C144.171 76.4921 143.878 77.7534 143.878 79.2201C143.878 80.6868 144.171 81.9774 144.758 83.0921C145.374 84.1774 146.166 85.0134 147.134 85.6001C148.131 86.1868 149.187 86.4801 150.302 86.4801C151.446 86.4801 152.517 86.2014 153.514 85.6441C154.511 85.0574 155.303 84.2361 155.89 83.1801C156.477 82.0948 156.77 80.8041 156.77 79.3081ZM202.782 67.1201L195.654 91.4961H189.01L184.566 74.4681L180.122 91.4961H173.434L166.262 67.1201H172.51L176.822 85.6881L181.486 67.1201H187.998L192.574 85.6441L196.886 67.1201H202.782ZM204.531 79.2201C204.531 76.7561 205.015 74.5708 205.983 72.6641C206.981 70.7574 208.315 69.2908 209.987 68.2641C211.689 67.2374 213.581 66.7241 215.663 66.7241C217.482 66.7241 219.066 67.0908 220.415 67.8241C221.794 68.5574 222.894 69.4814 223.715 70.5961V67.1201H229.919V91.4961H223.715V87.9321C222.923 89.0761 221.823 90.0294 220.415 90.7921C219.037 91.5254 217.438 91.8921 215.619 91.8921C213.566 91.8921 211.689 91.3641 209.987 90.3081C208.315 89.2521 206.981 87.7708 205.983 85.8641C205.015 83.9281 204.531 81.7134 204.531 79.2201ZM223.715 79.3081C223.715 77.8121 223.422 76.5361 222.835 75.4801C222.249 74.3948 221.457 73.5734 220.459 73.0161C219.462 72.4294 218.391 72.1361 217.247 72.1361C216.103 72.1361 215.047 72.4148 214.079 72.9721C213.111 73.5294 212.319 74.3508 211.703 75.4361C211.117 76.4921 210.823 77.7534 210.823 79.2201C210.823 80.6868 211.117 81.9774 211.703 83.0921C212.319 84.1774 213.111 85.0134 214.079 85.6001C215.077 86.1868 216.133 86.4801 217.247 86.4801C218.391 86.4801 219.462 86.2014 220.459 85.6441C221.457 85.0574 222.249 84.2361 222.835 83.1801C223.422 82.0948 223.715 80.8041 223.715 79.3081ZM259.256 67.1201L244.164 103.024H237.608L242.888 90.8801L233.12 67.1201H240.028L246.32 84.1481L252.7 67.1201H259.256ZM270.54 60.2561L269.836 81.5081H264.644L263.896 60.2561H270.54ZM267.372 91.8041C266.257 91.8041 265.333 91.4668 264.6 90.7921C263.896 90.0881 263.544 89.2228 263.544 88.1961C263.544 87.1694 263.896 86.3188 264.6 85.6441C265.333 84.9401 266.257 84.5881 267.372 84.5881C268.457 84.5881 269.352 84.9401 270.056 85.6441C270.76 86.3188 271.112 87.1694 271.112 88.1961C271.112 89.2228 270.76 90.0881 270.056 90.7921C269.352 91.4668 268.457 91.8041 267.372 91.8041Z" fill="#11142D"/>
</svg>
